<svg width="588" height="80" viewBox="0 0 588 80" fill="none" xmlns="http://www.w3.org/2000/svg">
<g clip-path="url(#clip0_1155_1616)">
<path d="M568.542 36.4653C580.407 38.613 587.999 47.092 587.999 57.9163C587.999 72.0545 577.396 84.829 555.408 78.1947L557.065 67.759C571.756 72.2456 577.495 65.7101 577.495 57.9097C577.495 50.1094 571.368 45.1353 558.038 45.8205V7.21387H568.542V36.4653Z" fill="#1771DA"/>
<path d="M558.032 28.2764H543.926V17.7485H558.032H568.543H587.218V28.2764H568.543H558.032Z" fill="#E05536"/>
<path d="M479.815 23.0125L476.7 67.8647H466.195L469.212 23.0125C469.449 19.501 469.798 15.9961 469.988 12.4846L470.277 7.2207H480.88L480.493 12.4846L479.809 23.0125H479.815Z" fill="#E05536"/>
<path d="M469.212 23.0125H462.014V12.478H469.987H480.498H491.489V23.0125H479.815H469.212Z" fill="#E9C02F"/>
<path d="M517.27 66.982L520.09 77.1212C520.09 77.1212 517.757 79.9475 503.453 79.9475C489.149 79.9475 483.318 76.5348 483.318 61.3228H493.823C493.823 68.6356 495.768 69.413 504.912 69.413C514.056 69.413 517.264 66.9754 517.264 66.9754L517.27 66.982Z" fill="#1771DA"/>
<path d="M514.444 33.2505H488.959V43.7784H514.444V33.2505Z" fill="#1771DA"/>
<path d="M434.38 77.0286C411.813 84.7301 403.734 77.5161 403.734 51.6773V7.21387H414.239V51.6773C414.239 70.2032 418.617 71.6658 430.975 67.0805L434.38 77.0286Z" fill="#1771DA"/>
<path d="M328.048 23.0125L324.932 67.8647H314.428L317.445 23.0125C317.682 19.501 318.03 15.9961 318.221 12.4846L318.51 7.2207H329.113L328.725 12.4846L328.041 23.0125H328.048Z" fill="#E05536"/>
<path d="M317.444 23.0125H310.246V12.478H318.22H328.731H339.721V23.0125H328.047H317.444Z" fill="#1771DA"/>
<path d="M365.503 66.982L368.323 77.1212C368.323 77.1212 365.989 79.9475 351.685 79.9475C337.381 79.9475 331.551 76.5348 331.551 61.3228H342.055C342.055 68.6356 344.001 69.413 353.144 69.413C362.288 69.413 365.496 66.9754 365.496 66.9754L365.503 66.982Z" fill="#E9C02F"/>
<path d="M362.677 33.2505H337.191V43.7784H362.677V33.2505Z" fill="#1771DA"/>
<path d="M256.639 47.0923V79.954H246.135V54.9915V41.8283V23.1114V12.5769V1.9502H256.639V12.5769V23.1114V35.4905V47.0923Z" fill="#1771DA"/>
<path d="M246.136 54.9913L239.326 60.8415L234.074 51.7762C238.452 47.7772 242.442 44.5622 246.136 41.8281C249.43 39.3971 252.947 37.2362 256.641 35.4903C261.604 33.1515 266.271 32.0776 271.037 32.0776C286.116 32.0776 292.15 39.0018 292.15 52.4548C292.15 65.9078 286.603 79.9472 267.829 79.9472V68.833C271.037 68.833 281.252 68.6353 281.252 52.547C281.252 45.5241 279.017 42.5989 271.037 42.5989C265.975 42.5989 261.696 43.9627 256.641 47.0855C252.914 49.3847 249.456 52.1254 246.136 54.9847V54.9913Z" fill="#E05536"/>
<path d="M246.135 23.1111H236.012V12.5767H246.135H256.639H263.738V23.1111H256.639H246.135Z" fill="#E9C02F"/>
<path d="M181.926 37.829L170.936 7.21387H182.124L190.196 29.7388C187.172 32.1303 184.391 34.8644 181.926 37.829Z" fill="#E9C02F"/>
<path d="M190.189 29.7391C193.396 27.2027 196.999 24.7651 201.087 22.4263L206.05 31.6892C169.666 52.264 182.899 78.004 206.05 66.7909L208.482 77.0289C178.711 89.0194 161.686 62.2056 181.926 37.836C184.391 34.8647 187.171 32.1306 190.195 29.7457L190.189 29.7391Z" fill="#1771DA"/>
<path d="M133.861 6.23877H150.794V16.7732H127.537H115.376H106.43V6.23877H123.356H133.861Z" fill="#1771DA"/>
<path d="M127.538 16.7734L121.898 26.5239C128.419 25.9376 133.77 24.9625 137.464 24.1851L139.41 34.3243C133.961 35.5892 123.358 37.5393 109.35 37.5393V27.0114L115.384 16.7734H127.545H127.538Z" fill="#E05536"/>
<path d="M137.464 24.1786L136.59 19.501H147.39L150.795 37.2429H139.995L139.41 34.3177L137.464 24.1786Z" fill="#1771DA"/>
<path d="M133.862 0H123.357V6.23899H133.862V0Z" fill="#1771DA"/>
<path d="M133.862 42.4146H123.357V74.9798H133.862V42.4146Z" fill="#1771DA"/>
<path d="M104.288 17.7485L100.108 27.4924L85.6133 21.1612L89.6954 11.5029L104.288 17.7485Z" fill="#1771DA"/>
<path d="M104.288 35.5891L100.108 45.2407L85.6133 39.0017L89.6954 29.3501L104.288 35.5891Z" fill="#1771DA"/>
<path d="M105.458 49.2397C105.458 58.9902 103.999 66.4941 94.6583 77.0286L85.6133 71.6658C93.5934 61.9154 94.9541 55.9663 94.9541 49.2397H105.458Z" fill="#1771DA"/>
<path d="M102.637 73.1284C108.961 65.6179 109.349 62.113 109.349 40.4644H119.853C119.853 64.9394 119.078 70.7896 110.611 79.9538L102.631 73.1284H102.637Z" fill="#E9C02F"/>
<path d="M147.875 65.6182C147.875 67.8582 148.559 69.4196 150.794 69.4196V79.9474C141.065 79.9474 137.371 74.9734 137.371 65.6116V40.458H147.875V65.6116V65.6182Z" fill="#1771DA"/>
<path d="M23.448 33.4415C24.4208 31.3926 25.2951 29.4425 25.9788 27.4924C26.0905 27.163 26.5046 25.6741 26.7544 24.7649C28.5029 18.4271 29.088 11.3119 29.088 0H39.5923C39.5923 1.85127 39.5923 3.61031 39.4937 5.26394C39.29 8.76884 39.4148 12.2935 39.1059 15.7918C38.2316 25.7399 36.3845 31.8801 32.6837 38.3167L23.4414 34.9041V33.4415H23.448Z" fill="#E05536"/>
<path d="M25.9712 27.4922H10.5039C10.9115 23.9939 11.2599 20.4824 11.3782 16.9644H26.7469V24.7647C26.4971 25.6739 26.0829 27.1628 25.9712 27.4922Z" fill="#1771DA"/>
<path d="M23.4482 27.4926V33.4417V34.9043V50.8937V61.4282V79.9541H13.9102V63.4705V52.9426V27.4926V16.9647V7.89941H23.4482V16.9647V27.4926Z" fill="#1771DA"/>
<path d="M39.4992 5.26416H67.2259V62.8908C67.2259 74.98 61.9737 79.9541 51.2722 79.9541H45.3364V69.4262H51.2722C54.8744 69.4262 56.7216 67.9637 56.7216 62.8908V51.0914C52.0544 61.4282 46.9929 66.5933 46.9929 66.5933L39.2099 60.9407C39.2099 60.9407 54.1908 45.4387 55.065 15.7986H39.1113C39.4203 12.3003 39.2954 8.77565 39.4992 5.27075V5.26416Z" fill="#1771DA"/>
<path d="M51.9491 15.7983C50.3912 41.3406 38.1317 55.3866 38.1317 55.3866L29.9609 50.2215C29.9609 50.2215 40.7611 36.472 42.411 15.8049H51.9425L51.9491 15.7983Z" fill="#E9C02F"/>
<path d="M23.4482 50.8934C26.2682 50.0172 27.7275 49.332 27.7275 49.332V59.8599C27.7275 59.8599 26.2682 60.5451 23.4482 61.4213C20.3456 62.3898 17.1312 63.009 13.9168 63.4702C10.5117 63.9577 6.52166 64.2476 1.95312 64.2476V53.7197C6.52823 53.7197 10.5117 53.4299 13.9168 52.9423C17.1312 52.4812 20.3456 51.8619 23.4482 50.8934Z" fill="#E05536"/>
<path d="M10.5043 27.4926C9.43287 36.6567 8.07217 42.2171 8.07217 42.2171L0 39.0021C0 39.0021 3.0172 26.2277 3.0172 7.89941H11.5758C11.5758 11.1144 11.4772 14.1384 11.3786 16.9647C11.2603 20.4828 10.9119 23.9943 10.5043 27.4926Z" fill="#E05536"/>
</g>
<defs>
<clipPath id="clip0_1155_1616">
<rect width="588" height="80" fill="white"/>
</clipPath>
</defs>
</svg>
