<?xml version="1.0" encoding="UTF-8"?>
<svg id="_レイヤー_2" data-name="レイヤー 2" xmlns="http://www.w3.org/2000/svg" viewBox="0 0 894.51 121.43">
  <defs>
    <style>
      .cls-1 {
        fill: #4462e0;
      }

      .cls-1, .cls-2, .cls-3 {
        stroke-width: 0px;
      }

      .cls-2 {
        fill: #e05e36;
      }

      .cls-3 {
        fill: #e0b537;
      }
    </style>
  </defs>
  <g id="_レイヤー_1-2" data-name="レイヤー 1">
    <path class="cls-1" d="M864.91,55.35c18.05,3.26,29.6,16.13,29.6,32.56,0,21.46-16.13,40.85-49.58,30.78l2.52-15.84c22.35,6.81,31.08-3.11,31.08-14.95s-9.32-19.39-29.6-18.35V10.95h15.98v44.4Z"/>
    <polygon class="cls-2" points="848.92 42.92 827.46 42.92 827.46 26.94 848.92 26.94 864.91 26.94 893.32 26.94 893.32 42.92 864.91 42.92 848.92 42.92"/>
    <path class="cls-2" d="M729.93,34.93l-4.74,68.08h-15.98l4.59-68.08c.36-5.33.89-10.65,1.18-15.98l.44-7.99h16.13l-.59,7.99-1.04,15.98Z"/>
    <polygon class="cls-3" points="713.8 34.93 702.85 34.93 702.85 18.94 714.98 18.94 730.97 18.94 747.69 18.94 747.69 34.93 729.93 34.93 713.8 34.93"/>
    <path class="cls-1" d="M786.91,101.67l4.29,15.39s-3.55,4.29-25.31,4.29-30.63-5.18-30.63-28.27h15.98c0,11.1,2.96,12.28,16.87,12.28s18.79-3.7,18.79-3.7Z"/>
    <rect class="cls-1" x="743.84" y="50.47" width="38.77" height="15.98"/>
    <path class="cls-1" d="M660.81,116.92c-34.33,11.69-46.62.74-46.62-38.48V10.95h15.98v67.49c0,28.12,6.66,30.34,25.46,23.38l5.18,15.1Z"/>
    <path class="cls-2" d="M499.05,34.93l-4.74,68.08h-15.98l4.59-68.08c.36-5.33.89-10.65,1.18-15.98l.44-7.99h16.13l-.59,7.99-1.04,15.98Z"/>
    <polygon class="cls-1" points="482.92 34.93 471.97 34.93 471.97 18.94 484.1 18.94 500.09 18.94 516.81 18.94 516.81 34.93 499.05 34.93 482.92 34.93"/>
    <path class="cls-3" d="M556.03,101.67l4.29,15.39s-3.55,4.29-25.31,4.29-30.63-5.18-30.63-28.27h15.98c0,11.1,2.96,12.28,16.87,12.28s18.79-3.7,18.79-3.7Z"/>
    <rect class="cls-1" x="512.96" y="50.47" width="38.77" height="15.98"/>
    <polygon class="cls-1" points="390.42 71.48 390.42 121.36 374.44 121.36 374.44 83.47 374.44 63.49 374.44 35.08 374.44 19.09 374.44 2.96 390.42 2.96 390.42 19.09 390.42 35.08 390.42 53.87 390.42 71.48"/>
    <path class="cls-2" d="M374.44,83.47l-10.36,8.88-7.99-13.76c6.66-6.07,12.73-10.95,18.35-15.1,5.01-3.69,10.36-6.97,15.98-9.62,7.55-3.55,14.65-5.18,21.9-5.18,22.94,0,32.12,10.51,32.12,30.93s-8.44,41.73-37,41.73v-16.87c4.88,0,20.42-.3,20.42-24.72,0-10.66-3.4-15.1-15.54-15.1-7.7,0-14.21,2.07-21.9,6.81-5.67,3.49-10.93,7.65-15.98,11.99Z"/>
    <polygon class="cls-3" points="374.44 35.08 359.04 35.08 359.04 19.09 374.44 19.09 390.42 19.09 401.22 19.09 401.22 35.08 390.42 35.08 374.44 35.08"/>
    <path class="cls-3" d="M276.76,57.42l-16.72-46.47h17.02l12.28,34.19c-4.6,3.63-8.83,7.78-12.58,12.28Z"/>
    <path class="cls-1" d="M289.33,45.14c4.88-3.85,10.36-7.55,16.58-11.1l7.55,14.06c-55.35,31.23-35.22,70.3,0,53.28l3.7,15.54c-45.29,18.2-71.19-22.5-40.4-59.49,3.75-4.51,7.98-8.66,12.58-12.28Z"/>
    <polygon class="cls-1" points="203.64 9.47 229.4 9.47 229.4 25.46 194.02 25.46 175.52 25.46 161.91 25.46 161.91 9.47 187.66 9.47 203.64 9.47"/>
    <path class="cls-2" d="M194.02,25.46l-8.58,14.8c9.92-.89,18.06-2.37,23.68-3.55l2.96,15.39c-8.29,1.92-24.42,4.88-45.73,4.88v-15.98l9.18-15.54h18.5Z"/>
    <polygon class="cls-1" points="209.12 36.7 207.79 29.6 224.22 29.6 229.4 56.53 212.97 56.53 212.08 52.09 209.12 36.7"/>
    <rect class="cls-1" x="187.66" width="15.98" height="9.47"/>
    <rect class="cls-1" x="187.66" y="64.38" width="15.98" height="49.43"/>
    <polygon class="cls-1" points="158.65 26.94 152.29 41.73 130.24 32.12 136.45 17.46 158.65 26.94"/>
    <polygon class="cls-1" points="158.65 54.02 152.29 68.67 130.24 59.2 136.45 44.55 158.65 54.02"/>
    <path class="cls-1" d="M160.43,74.74c0,14.8-2.22,26.19-16.43,42.18l-13.76-8.14c12.14-14.8,14.21-23.83,14.21-34.04h15.98Z"/>
    <path class="cls-3" d="M156.14,111c9.62-11.4,10.21-16.72,10.21-49.58h15.98c0,37.15-1.18,46.03-14.06,59.94l-12.14-10.36Z"/>
    <path class="cls-1" d="M224.96,99.6c0,3.4,1.04,5.77,4.44,5.77v15.98c-14.8,0-20.42-7.55-20.42-21.76v-38.18h15.98v38.18Z"/>
    <path class="cls-2" d="M35.67,50.76c1.48-3.11,2.81-6.07,3.85-9.03.17-.5.8-2.76,1.18-4.14,2.66-9.62,3.55-20.42,3.55-37.59h15.98c0,2.81,0,5.48-.15,7.99-.31,5.32-.12,10.67-.59,15.98-1.33,15.1-4.14,24.42-9.77,34.19l-14.06-5.18v-2.22Z"/>
    <path class="cls-1" d="M39.51,41.73H15.98c.62-5.31,1.15-10.64,1.33-15.98h23.38v11.84c-.38,1.38-1.01,3.64-1.18,4.14Z"/>
    <polygon class="cls-1" points="35.67 41.73 35.67 50.76 35.67 52.98 35.67 77.25 35.67 93.24 35.67 121.36 21.16 121.36 21.16 96.34 21.16 80.36 21.16 41.73 21.16 25.75 21.16 11.99 35.67 11.99 35.67 25.75 35.67 41.73"/>
    <path class="cls-1" d="M60.09,7.99h42.18v87.47c0,18.35-7.99,25.9-24.27,25.9h-9.03v-15.98h9.03c5.48,0,8.29-2.22,8.29-9.92v-17.91c-7.1,15.69-14.8,23.53-14.8,23.53l-11.84-8.58s22.79-23.53,24.12-68.52h-24.27c.47-5.31.28-10.66.59-15.98Z"/>
    <path class="cls-3" d="M79.03,23.98c-2.37,38.77-21.02,60.09-21.02,60.09l-12.43-7.84s16.43-20.87,18.94-52.24h14.5Z"/>
    <path class="cls-2" d="M35.67,77.25c4.29-1.33,6.51-2.37,6.51-2.37v15.98s-2.22,1.04-6.51,2.37c-4.72,1.47-9.61,2.41-14.5,3.11-5.18.74-11.25,1.18-18.2,1.18v-15.98c6.96,0,13.02-.44,18.2-1.18,4.89-.7,9.78-1.64,14.5-3.11Z"/>
    <path class="cls-2" d="M15.98,41.73c-1.63,13.91-3.7,22.35-3.7,22.35L0,59.2S4.59,39.81,4.59,11.99h13.02c0,4.88-.15,9.47-.3,13.76-.18,5.34-.71,10.67-1.33,15.98Z"/>
  </g>
</svg>